# AST/ASF file generated using VICON BodyLanguage
# -----------------------------------------------
:version 1.10
:name VICON
:units
  mass 1.0
  length 0.45
  angle deg
:documentation
   .ast/.asf automatically generated from VICON data using
   VICON BodyBuilder and BodyLanguage model FoxedUp or BRILLIANT.MOD
:root
   order TX TY TZ RX RY RZ
   axis XYZ
   position 0 0 0  
   orientation 0 0 0 
:bonedata
  begin
     id 1 
     name lhipjoint
     direction 0.716712 -0.619771 0.3197 
     length 2.67249 
     axis 0 0 0  XYZ
  end
  begin
     id 2 
     name lfemur
     direction 0.34202 -0.939693 0  
     length 7.04375  
     axis 0 0 20  XYZ
    dof rx ry rz
    limits (-160.0 20.0)
           (-70.0 70.0)
           (-60.0 70.0)
  end
  begin
     id 3 
     name ltibia
     direction 0.34202 -0.939693 0   
     length 8.12233   
     axis 0 0 20   XYZ
    dof rx
    limits (-10.0 170.0)
  end
  begin
     id 4 
     name lfoot
     direction 0.0986665 -0.271084 0.957485   
     length 1.97802   
     axis -90 7.62852e-016 20   XYZ
    dof rx rz
    limits (-45.0 90.0)
           (-70.0 20.0)
  end
  begin
     id 5 
     name ltoes
     direction 1.53569e-011 -4.21962e-011 1   
     length 0.991074   
     axis -90 7.62852e-016 20   XYZ
    dof rx
    limits (-90.0 20.0)
  end
  begin
     id 6 
     name rhipjoint
     direction -0.684484 -0.647907 0.334213   
     length 2.55643  
     axis 0 0 0  XYZ 
  end
  begin
     id 7 
     name rfemur
     direction -0.34202 -0.939693 0   
     length 7.00452   
     axis 0 0 -20   XYZ
    dof rx ry rz
    limits (-160.0 20.0)
           (-70.0 70.0)
           (-70.0 60.0)
  end
  begin
     id 8 
     name rtibia
     direction -0.34202 -0.939693 0   
     length 7.98545   
     axis 0 0 -20   XYZ
    dof rx
    limits (-10.0 170.0)
 end
 begin
     id 9 
     name rfoot
     direction -0.0877828 -0.241181 0.966502   
     length 2.17223  
     axis -90 -7.62852e-016 -20   XYZ
    dof rx rz
    limits (-45.0 90.0)
           (-20.0 70.0)
  end
  begin
     id 10 
     name rtoes
     direction -1.53586e-011 -4.22014e-011 1   
     length 1.0886   
     axis -90 -7.62852e-016 -20   XYZ
    dof rx
    limits (-90.0 20.0)
  end
  begin
     id 11 
     name lowerback
     direction -0.0470064 0.989573 -0.136149   
     length 2.05976   
     axis 0 0 0   XYZ
    dof rx ry rz
    limits (-20.0 45.0)
           (-30.0 30.0)
           (-30.0 30.0)
  end
  begin
     id 12 
     name upperback
     direction -0.00532895 0.998093 0.0615045   
     length 2.02286   
     axis 0 0 0   XYZ
    dof rx ry rz
    limits (-20.0 45.0)
           (-30.0 30.0)
           (-30.0 30.0)
  end
  begin
     id 13 
     name thorax
     direction 0.0171558 0.991502 0.128954   
     length 2.09196   
     axis 0 0 0   XYZ
    dof rx ry rz
    limits (-20.0 45.0)
           (-30.0 30.0)
           (-30.0 30.0)
  end
  begin
     id 14 
     name lowerneck
     direction 0.0221176 0.995362 0.0936194   
     length 1.70234   
     axis 0 0 0   XYZ
    dof rx ry rz
    limits (-20.0 45.0)
           (-30.0 30.0)
           (-30.0 30.0)
  end
  begin
     id 15 
     name upperneck
     direction -0.0237973 0.998511 -0.0490877   
     length 1.66068   
     axis 0 0 0   XYZ
    dof rx ry rz
    limits (-20.0 45.0)
           (-30.0 30.0)
           (-30.0 30.0)
  end
  begin
     id 16
     name head
     direction -0.00980141 0.999531 -0.0289958  
     length 1.82618  
     axis 0 0 0   XYZ
    dof rx ry rz
    limits (-20.0 45.0)
           (-30.0 30.0)
           (-30.0 30.0)
  end
  begin
     id 17 
     name lclavicle
     direction 0.894784 0.445864 -0.0238113  
     length 3.37997  
     axis 0 0 0   XYZ
    dof ry rz
    limits (-20.0 10.0)
           (0.0 20.0)
  end
  begin
     id 18 
     name lhumerus
     direction 1 -4.48975e-011 6.49229e-028   
     length 5.79016   
     axis 180 -30 -90   XYZ
    dof rx ry rz
    limits (-60.0 90.0)
           (-90.0 90.0)
           (-90.0 90.0)
  end
  begin
     id 19
     name lradius
     direction 1 -4.48959e-011 2.80427e-027   
     length 3.48314   
     axis 180 -30 -90   XYZ
    dof rx
    limits (-10.0 170.0)
  end
  begin
     id 20
     name lwrist
     direction 1 -4.48938e-011 5.60449e-029   
     length 1.74157   
     axis 8.48505e-016 90 90   XYZ
    dof ry
    limits (-180.0 0.0)
 end
  begin
     id 21 
     name lhand
     direction 1 -4.49048e-011 1.1209e-028   
     length 0.587065   
     axis -7.15228e-017 90 90   XYZ
    dof rx rz
    limits (-90.0 90.0)
           (-45.0 45.0)
  end
  begin
     id 22 
     name lfingers
     direction 1 -4.49036e-011 2.24179e-028   
     length 0.473307   
     axis -1.43046e-016 90 90   XYZ
    dof rx
    limits (0.0 90.0)
  end
  begin
     id 23
     name lthumb
     direction 0.707107 -6.34878e-011 0.707107   
     length 0.679577   
     axis -90 45 2.85299e-015   XYZ
    dof rx rz
    limits (-45.0 45.0)
           (-45.0 45.0)
  end
  begin
     id 24 
     name rclavicle
     direction -0.952963 0.303049 0.00480459   
     length 3.50503  
     axis 0 0 0   XYZ 
    dof ry rz
    limits (-10.0 20.0)
           (-20.0 0.0)
  end
  begin
     id 25 
     name rhumerus
     direction -1 -4.48973e-011 -1.5431e-027  
     length 5.69822   
     axis 180 30 90   XYZ
    dof rx ry rz
    limits (-90.0 60.0)
           (-90.0 90.0)
           (-90.0 90.0)
  end
  begin
     id 26 
     name rradius
     direction -1 -4.4896e-011 2.11972e-027   
     length 3.58077   
     axis 180 30 90   XYZ
    dof rx
    limits (-10.0 170.0)
  end
  begin
     id 27 
     name rwrist
     direction -1 -4.48943e-011 5.60449e-029   
     length 1.79039   
     axis 8.48505e-016 -90 -90   XYZ
    dof ry
    limits (-180.0 0.0)
  end
  begin
     id 28
     name rhand
     direction -1 -4.49007e-011 1.1209e-028   
     length 0.620156   
     axis -7.15228e-017 -90 -90   XYZ
    dof rx rz
    limits (-90.0 90.0)
           (-45.0 45.0)
  end
  begin
     id 29
     name rfingers
     direction -1 -4.49025e-011 2.24179e-028   
     length 0.499985   
     axis -1.43046e-016 -90 -90   XYZ
    dof rx
    limits (0.0 90.0)
  end
  begin
     id 30
     name rthumb
     direction -0.707107 -6.3481e-011 0.707107   
     length 0.717882   
     axis -90 -45 -2.85299e-015   XYZ
    dof rx rz
    limits (-45.0 45.0)
           (-45.0 45.0)
  end
:hierarchy
  begin
    root lhipjoint rhipjoint lowerback
    lhipjoint lfemur
    lfemur ltibia
    ltibia lfoot
    lfoot ltoes
    rhipjoint rfemur
    rfemur rtibia
    rtibia rfoot
    rfoot rtoes
    lowerback upperback
    upperback thorax
    thorax lowerneck lclavicle rclavicle
    lowerneck upperneck
    upperneck head
    lclavicle lhumerus
    lhumerus lradius
    lradius lwrist
    lwrist lhand lthumb
    lhand lfingers
    rclavicle rhumerus
    rhumerus rradius
    rradius rwrist
    rwrist rhand rthumb
    rhand rfingers
  end

#!OML:ASF H:\Terrain\Patient Classification 1\PaulMetrics\March17Take4\PaulMetrics.ASF
:FULLY-SPECIFIED
:DEGREES
165
root 3.49723 17.3832 9.10418 3.64764 0.845609 2.95182
lowerback 1.74376 -0.0787219 -6.32235
upperback -2.36468 -0.320057 -0.0182856
thorax -3.39563 0.00125878 3.54165
lowerneck -4.42514 6.51786 6.72656
upperneck 15.0907 9.04731 -5.49298
head 5.8416 4.43037 -2.21585
rclavicle 1.49079e-014 -1.51573e-014
rhumerus -49.6995 9.11725 -90.6817
rradius 36.3232
rwrist -6.69435
rhand -13.5654 -33.0622
rfingers 7.12502
rthumb 12.5481 -62.6654
lclavicle 1.49079e-014 -1.51573e-014
lhumerus -44.3995 -14.9672 85.6954
lradius 51.5912
lwrist 21.4231
lhand -15.1055 -20.6807
lfingers 7.12502
lthumb 11.063 9.00769
rfemur -33.5186 4.10872 17.4259
rtibia 35.4204
rfoot -4.13607 -7.17269
rtoes -2.93192
lfemur 0.818335 -0.508338 -24.4395
ltibia 43.3774
lfoot 0.79051 1.63193
ltoes -8.17297
166
root 3.46778 17.3893 9.25609 3.57382 1.32623 2.85442
lowerback 1.7641 -0.150997 -6.16747
upperback -2.30751 -0.40935 0.0229557
thorax -3.33761 -0.0496689 3.5015
lowerneck -4.22811 6.56247 6.38633
upperneck 14.899 9.10804 -5.26271
head 5.72522 4.46157 -2.09428
rclavicle -9.73462e-015 2.68359e-015
rhumerus -49.4791 9.2578 -90.4957
rradius 36.3643
rwrist -6.70442
rhand -13.3272 -33.011
rfingers 7.12502
rthumb 12.7777 -62.6
lclavicle -9.73462e-015 2.68359e-015
lhumerus -44.3403 -14.9173 85.9552
lradius 50.2628
lwrist 21.3009
lhand -14.6685 -20.3545
lfingers 7.12502
lthumb 11.4845 9.31087
rfemur -32.9869 3.69088 17.6758
rtibia 35.5634
rfoot -4.85621 -7.15764
rtoes -1.23155
lfemur -0.583867 -0.374414 -24.1535
ltibia 46.1355
lfoot 2.79888 2.42212
ltoes -4.57115
167
root 3.43227 17.4036 9.3903 3.77256 1.65354 2.44672
lowerback 1.71788 -0.188154 -5.8751
upperback -2.39518 -0.44491 0.151244
thorax -3.39835 -0.0691967 3.47205
lowerneck -4.21829 6.62489 6.19587
upperneck 15.045 9.18511 -5.03598
head 5.75466 4.50304 -1.98632
rclavicle 1.13435e-014 4.87022e-015
rhumerus -49.1969 9.19989 -90.3017
rradius 36.4053
rwrist -6.594
rhand -13.1872 -32.9302
rfingers 7.12502
rthumb 12.9127 -62.5107
lclavicle 1.13435e-014 4.87022e-015
lhumerus -44.3487 -14.9075 86.1623
lradius 48.9895
lwrist 21.4777
lhand -14.4585 -20.4523
lfingers 7.12502
lthumb 11.687 9.20175
rfemur -32.7509 3.16944 18.4572
rtibia 35.565
rfoot -5.06476 -7.09017
rtoes -4.96102
lfemur -2.46852 -0.336899 -23.573
ltibia 48.8712
lfoot 4.44059 3.27518
ltoes -3.05881
168
root 3.39425 17.4066 9.50235 4.01395 1.94282 1.82829
lowerback 1.77182 -0.315667 -5.51499
upperback -2.46725 -0.600888 0.398908
thorax -3.48681 -0.148646 3.53468
lowerneck -4.27908 6.78839 6.16172
upperneck 15.0836 9.41069 -5.03773
head 5.78919 4.60924 -1.96121
rclavicle 3.50688e-016 -2.29845e-014
rhumerus -48.7984 9.40392 -90.1639
rradius 36.4614
rwrist -6.45721
rhand -13.1901 -33.2234
rfingers 7.12502
rthumb 12.91 -62.8041
lclavicle 3.50688e-016 -2.29845e-014
lhumerus -44.4397 -14.414 86.173
lradius 48.1129
lwrist 21.5051
lhand -14.1886 -20.4712
lfingers 7.12502
lthumb 11.9473 9.16791
rfemur -32.1734 2.88288 19.4887
rtibia 35.4929
rfoot -5.3103 -7.2733
rtoes -8.27317
lfemur -4.50089 -0.34748 -22.7861
ltibia 51.5437
lfoot 5.07831 4.10277
ltoes -3.58866
169
root 3.35954 17.4397 9.63829 4.03708 2.19136 1.58599
lowerback 1.82496 -0.39023 -5.48565
upperback -2.43054 -0.697416 0.535174
thorax -3.46755 -0.196936 3.66449
lowerneck -4.26059 6.87267 6.13259
upperneck 14.9935 9.53683 -5.11272
head 5.7674 4.66498 -1.97186
rclavicle 1.73713e-015 5.69021e-015
rhumerus -48.312 9.61461 -89.9586
rradius 36.2501
rwrist -6.46557
rhand -13.139 -33.4938
rfingers 7.12502
rthumb 12.9592 -63.0713
lclavicle 1.73713e-015 5.69021e-015
lhumerus -44.5911 -14.1962 86.3629
lradius 47.376
lwrist 21.3083
lhand -13.7799 -19.8392
lfingers 7.12502
lthumb 12.3414 9.77657
rfemur -31.6972 3.29703 19.8192
rtibia 35.3456
rfoot -5.27885 -7.96091
rtoes -8.74662
lfemur -6.06717 -0.170843 -22.4137
ltibia 53.8654
lfoot 4.92197 4.96238
ltoes -4.81115
170
root 3.33351 17.4837 9.78645 3.93331 2.3857 1.29516
lowerback 1.92858 -0.287181 -5.17734
upperback -2.41047 -0.553577 0.559532
thorax -3.52108 -0.131864 3.51055
lowerneck -4.12127 6.74179 6.23432
upperneck 14.9641 9.37555 -5.24605
head 5.73569 4.58663 -2.0474
rclavicle -1.3813e-015 -2.84511e-014
rhumerus -48.1159 9.3357 -89.6445
rradius 36.3651
rwrist -6.58157
rhand -13.3849 -33.2204
rfingers 7.12502
rthumb 12.7221 -62.8129
lclavicle -1.3813e-015 -2.84511e-014
lhumerus -44.8172 -14.5821 86.7555
lradius 46.5853
lwrist 20.9734
lhand -13.2472 -19.1873
lfingers 7.12502
lthumb 12.8549 10.3969
rfemur -31.1221 3.74105 20.0842
rtibia 35.1023
rfoot -5.52235 -8.45296
rtoes -7.51915
lfemur -7.40742 0.00669205 -22.0701
ltibia 56.046
lfoot 4.38276 5.66398
ltoes -5.84423
171
root 3.32149 17.5038 9.92371 3.82559 2.75426 0.782985
lowerback 2.0295 -0.257119 -4.47099
upperback -2.36081 -0.489365 0.630085
thorax -3.53423 -0.118013 3.18372
lowerneck -3.99192 6.71744 6.37897
upperneck 14.8349 9.35863 -5.43326
head 5.68776 4.5778 -2.13591
rclavicle 1.84587e-015 1.65861e-015
rhumerus -47.9361 9.17811 -89.3551
rradius 36.7578
rwrist -6.7139
rhand -13.8113 -32.8229
rfingers 7.12502
rthumb 12.3111 -62.4405
lclavicle 1.84587e-015 1.65861e-015
lhumerus -44.7792 -14.9304 87.0276
lradius 45.5382
lwrist 20.6497
lhand -12.228 -18.6179
lfingers 7.12502
lthumb 13.8372 10.9018
rfemur -30.2618 3.0548 20.8137
rtibia 34.9644
rfoot -6.29088 -8.09436
rtoes -6.19778
lfemur -8.67059 -0.028468 -21.5919
ltibia 58.0409
lfoot 3.32751 6.05317
ltoes -6.42576
